<svg version="1.1" viewBox="0.0 0.0 32.0 32.0" fill="none" stroke="none" stroke-linecap="square" stroke-miterlimit="10" xmlns:xlink="http://www.w3.org/1999/xlink" xmlns="http://www.w3.org/2000/svg"><clipPath id="p.0"><path d="m0 0l32.0 0l0 32.0l-32.0 0l0 -32.0z" clip-rule="nonzero"/></clipPath><g clip-path="url(#p.0)"><path fill="#000000" fill-opacity="0.0" d="m0 0l32.0 0l0 32.0l-32.0 0z" fill-rule="evenodd"/><path fill="#285e88" d="m0 0l32.0 0l0 32.0l-32.0 0z" fill-rule="evenodd"/><path stroke="#285e88" stroke-width="1.0" stroke-linejoin="round" stroke-linecap="butt" d="m0 0l32.0 0l0 32.0l-32.0 0z" fill-rule="evenodd"/><path fill="#000000" fill-opacity="0.0" d="m-4.0052495 -8.23622l32.88189 0l0 48.472443l-32.88189 0z" fill-rule="evenodd"/><path fill="#ffffff" d="m24.885376 6.8194056l0 0.46875q-0.8125 0.03125 -1.234375 0.1875q-0.421875 0.15625 -0.5625 0.578125q-0.140625 0.40625 -0.140625 1.296875l0 11.906249q0 0.859375 0.140625 1.296875q0.140625 0.4375 0.5625 0.578125q0.421875 0.140625 1.234375 0.1875l0 0.484375q-0.546875 -0.046875 -1.375 -0.0625q-0.828125 -0.015625 -1.671875 -0.015625q-0.9375 0 -1.75 0.015625q-0.8125 0.015625 -1.3125 0.0625l0 -0.484375q0.8125 -0.046875 1.234375 -0.1875q0.421875 -0.140625 0.5625 -0.578125q0.140625 -0.4375 0.140625 -1.296875l0 -13.203124l0.09375 0.078125l-5.875 15.796874l-0.390625 0l-6.046875 -15.578124l0 12.671874q0 0.859375 0.15625 1.359375q0.15625 0.484375 0.625 0.6875q0.46875 0.203125 1.40625 0.25l0 0.484375q-0.4375 -0.046875 -1.140625 -0.0625q-0.6875 -0.015625 -1.3125 -0.015625q-0.5937505 0 -1.2031255 0.015625q-0.609375 0.015625 -1.015625 0.0625l0 -0.484375q0.8125 -0.046875 1.21875 -0.25q0.421875 -0.203125 0.5625 -0.6875q0.15625 -0.5 0.15625 -1.359375l0 -11.671874q0 -0.890625 -0.15625 -1.296875q-0.140625 -0.421875 -0.5625 -0.578125q-0.40625 -0.15625 -1.21875 -0.1875l0 -0.46875q0.40625 0.015625 1.015625 0.046875q0.609375 0.015625 1.2031255 0.015625q0.53125 0 1.09375 -0.015625q0.5625 -0.03125 0.953125 -0.046875l5.453125 14.343749l-0.421875 0.1875l5.40625 -14.468749q0.296875 0 0.5625 0q0.28125 0 0.5625 0q0.84375 0 1.671875 -0.015625q0.828125 -0.03125 1.375 -0.046875z" fill-rule="nonzero"/></g></svg>